<svg width="15" height="15" viewBox="0 0 26 18" fill="none" xmlns="http://www.w3.org/2000/svg">
<path d="M25.3753 8.45685C23.0216 3.86441 18.3618 0.757202 13.0263 0.757202C7.69084 0.757202 3.02982 3.86658 0.677385 8.45729C0.578098 8.65369 0.526367 8.87068 0.526367 9.09075C0.526367 9.31082 0.578098 9.52781 0.677385 9.72422C3.03112 14.3167 7.69084 17.4239 13.0263 17.4239C18.3618 17.4239 23.0229 14.3145 25.3753 9.72378C25.4746 9.52738 25.5263 9.31039 25.5263 9.09032C25.5263 8.87025 25.4746 8.65326 25.3753 8.45685ZM13.0263 15.3405C11.7902 15.3405 10.5818 14.974 9.55403 14.2872C8.52622 13.6005 7.72514 12.6243 7.2521 11.4823C6.77905 10.3403 6.65528 9.0836 6.89644 7.87122C7.13759 6.65884 7.73285 5.5452 8.60693 4.67112C9.481 3.79704 10.5946 3.20179 11.807 2.96063C13.0194 2.71947 14.2761 2.84324 15.4181 3.31629C16.5602 3.78934 17.5363 4.59041 18.223 5.61822C18.9098 6.64603 19.2763 7.8544 19.2763 9.09054C19.2767 9.91141 19.1154 10.7243 18.8014 11.4828C18.4875 12.2412 18.0271 12.9304 17.4467 13.5108C16.8662 14.0913 16.1771 14.5516 15.4186 14.8656C14.6601 15.1795 13.8472 15.3409 13.0263 15.3405ZM13.0263 4.92387C12.6544 4.92907 12.2849 4.9844 11.9278 5.08836C12.2222 5.4884 12.3634 5.98068 12.326 6.47593C12.2885 6.97118 12.0748 7.43661 11.7236 7.7878C11.3724 8.139 10.907 8.35271 10.4117 8.39017C9.91648 8.42764 9.4242 8.28638 9.02417 7.99201C8.79638 8.83124 8.8375 9.72078 9.14174 10.5354C9.44599 11.3501 9.99803 12.0488 10.7202 12.5332C11.4423 13.0177 12.2982 13.2635 13.1674 13.236C14.0365 13.2086 14.8752 12.9092 15.5654 12.3802C16.2555 11.8511 16.7623 11.1189 17.0145 10.2867C17.2668 9.45449 17.2517 8.56414 16.9714 7.74096C16.691 6.91778 16.1596 6.20323 15.452 5.69787C14.7443 5.19252 13.8959 4.92182 13.0263 4.92387Z" fill="#A0A0A0"/>
</svg>
