<svg width="216" height="136" viewBox="0 0 216 136" fill="none" xmlns="http://www.w3.org/2000/svg">
<g clip-path="url(#clip0_2622_383)">
<path d="M216 55.8565H215.635V45.8458C215.635 45.0849 215.485 44.3315 215.194 43.6285C214.904 42.9256 214.478 42.2868 213.941 41.7488C213.404 41.2108 212.766 40.784 212.064 40.4929C211.363 40.2017 210.61 40.0518 209.851 40.0518H188.678C187.919 40.0518 187.167 40.2017 186.465 40.4929C185.763 40.784 185.126 41.2108 184.589 41.7488C184.052 42.2868 183.625 42.9256 183.335 43.6285C183.044 44.3315 182.895 45.0849 182.895 45.8458V100.766C182.895 101.526 183.044 102.28 183.335 102.983C183.625 103.686 184.052 104.324 184.589 104.862C185.126 105.401 185.763 105.827 186.465 106.118C187.167 106.41 187.919 106.56 188.678 106.56H209.851C210.61 106.56 211.363 106.41 212.064 106.118C212.766 105.827 213.404 105.401 213.941 104.862C214.478 104.324 214.904 103.686 215.194 102.983C215.485 102.28 215.635 101.526 215.635 100.766V62.9824H216V55.8565Z" fill="#212121"/>
<path d="M214.404 46.1862V101.026C214.404 102.174 213.949 103.275 213.139 104.086C212.329 104.898 211.23 105.354 210.084 105.354H188.81C188.243 105.354 187.681 105.242 187.157 105.024C186.633 104.807 186.157 104.488 185.756 104.086C185.355 103.684 185.037 103.207 184.82 102.682C184.604 102.157 184.492 101.594 184.492 101.026V46.1862C184.492 45.0391 184.947 43.9388 185.757 43.1277C186.567 42.3165 187.665 41.8607 188.81 41.8607H191.391C191.265 42.1728 191.216 42.5113 191.251 42.8464C191.285 43.1816 191.402 43.5031 191.589 43.7827C191.777 44.0623 192.03 44.2914 192.327 44.45C192.624 44.6085 192.955 44.6916 193.291 44.692H205.421C205.758 44.6926 206.089 44.6101 206.387 44.4519C206.684 44.2936 206.938 44.0643 207.125 43.7844C207.313 43.5045 207.429 43.1826 207.463 42.8471C207.497 42.5115 207.449 42.1728 207.321 41.8607H210.084C211.23 41.8607 212.328 42.3163 213.138 43.1275C213.949 43.9386 214.404 45.0388 214.404 46.1862Z" fill="#EEEEEE"/>
<path d="M210.377 69.9373H185.646V76.6222H210.377V69.9373Z" fill="#32E0C4"/>
<path d="M211.358 75.4425H187.413C187.257 75.4424 187.107 75.3802 186.997 75.2696C186.886 75.159 186.824 75.0091 186.824 74.8527V68.9542C186.824 68.7978 186.886 68.6479 186.997 68.5373C187.107 68.4267 187.257 68.3646 187.413 68.3644H211.358C211.515 68.3646 211.664 68.4267 211.775 68.5373C211.885 68.6479 211.947 68.7978 211.947 68.9542V74.8527C211.947 75.0091 211.885 75.159 211.775 75.2696C211.664 75.3802 211.515 75.4424 211.358 75.4425ZM187.413 68.7576C187.361 68.7577 187.311 68.7784 187.274 68.8153C187.238 68.8521 187.217 68.9021 187.217 68.9542V74.8527C187.217 74.9048 187.237 74.9548 187.274 74.9917C187.311 75.0285 187.361 75.0493 187.413 75.0493H211.358C211.411 75.0493 211.46 75.0285 211.497 74.9917C211.534 74.9548 211.555 74.9048 211.555 74.8527V68.9542C211.555 68.9021 211.534 68.8521 211.497 68.8153C211.46 68.7784 211.411 68.7577 211.358 68.7576H187.413Z" fill="#212121"/>
<path d="M191.535 73.673H188.395V74.0663H191.535V73.673Z" fill="#212121"/>
<path d="M195.852 73.673H192.712V74.0663H195.852V73.673Z" fill="#212121"/>
<path d="M200.171 73.673H197.03V74.0663H200.171V73.673Z" fill="#212121"/>
<path d="M204.489 73.673H201.349V74.0663H204.489V73.673Z" fill="#212121"/>
<path d="M208.806 73.673H205.666V74.0663H208.806V73.673Z" fill="#212121"/>
<path opacity="0.1" d="M214.404 95.4501V101.026C214.404 102.174 213.949 103.275 213.139 104.086C212.329 104.898 211.23 105.354 210.084 105.354H188.81C188.243 105.354 187.681 105.242 187.157 105.024C186.633 104.807 186.157 104.488 185.756 104.086C185.355 103.684 185.037 103.207 184.82 102.682C184.604 102.157 184.492 101.594 184.492 101.026V75.3757L214.404 95.4501Z" fill="#212121"/>
<path d="M112.436 90.3853H19.5986V136H112.436V90.3853Z" fill="#EEEEEE"/>
<path opacity="0.1" d="M88.8344 136H19.9912C19.8872 136 19.7875 135.958 19.7139 135.885C19.6404 135.811 19.5989 135.711 19.5986 135.607V90.7785C19.5989 90.6743 19.6404 90.5745 19.7139 90.5008C19.7875 90.4272 19.8872 90.3856 19.9912 90.3853H20.8626L88.8344 136Z" fill="#212121"/>
<path d="M206.451 96.4803H62.582V96.8736H206.451V96.4803Z" fill="#212121"/>
<path d="M108.067 0.848936H66.9498V0H48.3055V0.848936H7.01859C6.65335 0.848936 6.29168 0.921001 5.95424 1.06102C5.6168 1.20103 5.31019 1.40626 5.05192 1.66497C4.79366 1.92368 4.58879 2.23082 4.44902 2.56885C4.30924 2.90688 4.2373 3.26917 4.2373 3.63505V60.0352C4.2373 60.7742 4.53033 61.4828 5.05192 62.0053C5.57351 62.5278 6.28095 62.8214 7.01859 62.8214H108.067C108.805 62.8214 109.512 62.5278 110.034 62.0053C110.555 61.4828 110.849 60.7742 110.849 60.0352V3.63505C110.849 3.26917 110.777 2.90688 110.637 2.56885C110.497 2.23082 110.292 1.92368 110.034 1.66497C109.776 1.40626 109.469 1.20103 109.132 1.06102C108.794 0.921001 108.432 0.848936 108.067 0.848936Z" fill="#666161"/>
<path d="M107.119 5.77197H7.9668V61.8033H107.119V5.77197Z" fill="#EEEEEE"/>
<path d="M57.4584 4.24467C58.02 4.24467 58.4753 3.78857 58.4753 3.22594C58.4753 2.66331 58.02 2.20721 57.4584 2.20721C56.8967 2.20721 56.4414 2.66331 56.4414 3.22594C56.4414 3.78857 56.8967 4.24467 57.4584 4.24467Z" fill="#32E0C4"/>
<path d="M37.4588 26.682H35.1035C34.9474 26.6818 34.7977 26.6196 34.6873 26.5091C34.5769 26.3985 34.5148 26.2486 34.5146 26.0922V23.7328C34.5148 23.5764 34.5769 23.4265 34.6873 23.3159C34.7977 23.2053 34.9474 23.1431 35.1035 23.1429H37.4588C37.6149 23.1431 37.7645 23.2053 37.8749 23.3159C37.9853 23.4265 38.0474 23.5764 38.0476 23.7328V26.0922C38.0474 26.2486 37.9853 26.3985 37.8749 26.5091C37.7645 26.6196 37.6149 26.6818 37.4588 26.682ZM35.1035 23.5362C35.0514 23.5362 35.0016 23.557 34.9648 23.5938C34.928 23.6307 34.9073 23.6807 34.9072 23.7328V26.0922C34.9073 26.1443 34.928 26.1943 34.9648 26.2311C35.0016 26.268 35.0514 26.2887 35.1035 26.2888H37.4588C37.5108 26.2887 37.5607 26.268 37.5975 26.2311C37.6343 26.1943 37.655 26.1443 37.655 26.0922V23.7328C37.655 23.6807 37.6343 23.6307 37.5975 23.5938C37.5607 23.557 37.5108 23.5362 37.4588 23.5362H35.1035Z" fill="#212121"/>
<path d="M79.4615 26.2888H34.7109V26.682H79.4615V26.2888Z" fill="#212121"/>
<path d="M78.2844 37.1026H67.8818V40.2484H78.2844V37.1026Z" fill="#32E0C4"/>
<path d="M79.0695 39.462H69.4521C69.296 39.4618 69.1463 39.3996 69.0359 39.289C68.9255 39.1785 68.8635 39.0285 68.8633 38.8721V36.5128C68.8635 36.3564 68.9255 36.2064 69.0359 36.0959C69.1463 35.9853 69.296 35.9231 69.4521 35.9229H79.0695C79.2257 35.9231 79.3753 35.9853 79.4857 36.0959C79.5961 36.2064 79.6582 36.3564 79.6584 36.5128V38.8721C79.6582 39.0285 79.5961 39.1785 79.4857 39.289C79.3753 39.3996 79.2257 39.4618 79.0695 39.462ZM69.4521 36.3161C69.4001 36.3162 69.3502 36.3369 69.3134 36.3738C69.2766 36.4107 69.2559 36.4606 69.2558 36.5128V38.8721C69.2559 38.9243 69.2766 38.9742 69.3134 39.0111C69.3502 39.0479 69.4001 39.0687 69.4521 39.0688H79.0695C79.1216 39.0687 79.1715 39.0479 79.2083 39.0111C79.2451 38.9742 79.2658 38.9243 79.2658 38.8721V36.5128C79.2658 36.4606 79.2451 36.4107 79.2083 36.3738C79.1715 36.3369 79.1216 36.3162 79.0695 36.3161H69.4521Z" fill="#212121"/>
<path d="M157.775 40.6417H138.147V54.4047H157.775V40.6417Z" fill="#32E0C4"/>
<path d="M159.738 53.3234H140.895C140.687 53.3232 140.488 53.2402 140.341 53.0928C140.193 52.9453 140.111 52.7454 140.11 52.5369V39.5603C140.111 39.3518 140.193 39.1519 140.341 39.0045C140.488 38.857 140.687 38.7741 140.895 38.7739H159.738C159.946 38.7741 160.145 38.857 160.293 39.0045C160.44 39.1519 160.523 39.3518 160.523 39.5603V52.5369C160.523 52.7454 160.44 52.9453 160.293 53.0928C160.145 53.2402 159.946 53.3232 159.738 53.3234ZM140.895 39.5603V52.5369H159.738L159.738 39.5603H140.895Z" fill="#212121"/>
<path d="M157.579 39.0688H156.794C156.794 37.348 156.111 35.6976 154.897 34.4808C153.682 33.2641 152.035 32.5805 150.317 32.5805C148.599 32.5805 146.952 33.2641 145.737 34.4808C144.522 35.6976 143.84 37.348 143.84 39.0688H143.055C143.055 37.1394 143.82 35.289 145.182 33.9247C146.544 32.5604 148.391 31.794 150.317 31.794C152.243 31.794 154.09 32.5604 155.452 33.9247C156.814 35.289 157.579 37.1394 157.579 39.0688Z" fill="#212121"/>
<path d="M152.28 44.4757C152.28 44.1333 152.192 43.7967 152.022 43.4993C151.853 43.2019 151.609 42.9539 151.315 42.78C151.02 42.606 150.686 42.512 150.344 42.5074C150.002 42.5027 149.665 42.5876 149.366 42.7535C149.067 42.9194 148.817 43.1606 148.639 43.4533C148.462 43.746 148.364 44.08 148.355 44.4223C148.346 44.7646 148.427 45.1032 148.589 45.4048C148.751 45.7063 148.988 45.9602 149.278 46.1415V48.2518C149.278 48.3885 149.305 48.5239 149.357 48.6502C149.41 48.7764 149.486 48.8912 149.583 48.9879C149.679 49.0845 149.794 49.1612 149.92 49.2135C150.046 49.2658 150.181 49.2927 150.317 49.2927C150.593 49.2927 150.857 49.1831 151.052 48.9879C151.247 48.7926 151.356 48.5279 151.356 48.2518V46.1415C151.639 45.9653 151.872 45.7198 152.034 45.4284C152.195 45.1369 152.28 44.8091 152.28 44.4757Z" fill="#212121"/>
<path d="M58.9509 110.637H55.8105V111.03H58.9509V110.637Z" fill="#212121"/>
<path d="M63.2693 110.637H60.1289V111.03H63.2693V110.637Z" fill="#212121"/>
<path d="M67.5877 110.637H64.4473V111.03H67.5877V110.637Z" fill="#212121"/>
<path d="M71.905 110.637H68.7646V111.03H71.905V110.637Z" fill="#212121"/>
<path d="M76.2234 110.637H73.083V111.03H76.2234V110.637Z" fill="#212121"/>
<path d="M116.557 132.658H24.5048C24.2967 132.657 24.0971 132.574 23.9499 132.427C23.8027 132.28 23.7199 132.08 23.7197 131.871V87.0429C23.7199 86.8344 23.8027 86.6345 23.9499 86.487C24.0971 86.3396 24.2967 86.2566 24.5048 86.2564H116.557C116.766 86.2566 116.965 86.3395 117.112 86.487C117.259 86.6344 117.342 86.8344 117.342 87.0429V131.871C117.342 132.08 117.259 132.28 117.112 132.427C116.965 132.574 116.766 132.657 116.557 132.658ZM24.5048 87.0429V131.871H116.558L116.557 87.0429H24.5048Z" fill="#212121"/>
<path d="M28.6269 93.7277C29.2773 93.7277 29.8045 93.1996 29.8045 92.548C29.8045 91.8965 29.2773 91.3683 28.6269 91.3683C27.9765 91.3683 27.4492 91.8965 27.4492 92.548C27.4492 93.1996 27.9765 93.7277 28.6269 93.7277Z" fill="#212121"/>
<path d="M32.7489 93.7277C33.3993 93.7277 33.9266 93.1996 33.9266 92.548C33.9266 91.8965 33.3993 91.3683 32.7489 91.3683C32.0985 91.3683 31.5713 91.8965 31.5713 92.548C31.5713 93.1996 32.0985 93.7277 32.7489 93.7277Z" fill="#212121"/>
<path d="M36.87 93.7277C37.5204 93.7277 38.0477 93.1996 38.0477 92.548C38.0477 91.8965 37.5204 91.3683 36.87 91.3683C36.2196 91.3683 35.6924 91.8965 35.6924 92.548C35.6924 93.1996 36.2196 93.7277 36.87 93.7277Z" fill="#212121"/>
<path d="M79.2655 113.389H52.7685C52.6124 113.389 52.4627 113.327 52.3523 113.216C52.2419 113.106 52.1799 112.956 52.1797 112.799V106.115C52.1799 105.958 52.2419 105.808 52.3523 105.698C52.4627 105.587 52.6124 105.525 52.7685 105.525H79.2655C79.4217 105.525 79.5713 105.587 79.6817 105.698C79.7921 105.808 79.8542 105.958 79.8544 106.115V112.799C79.8542 112.956 79.7921 113.106 79.6817 113.216C79.5713 113.327 79.4217 113.389 79.2655 113.389ZM52.7685 105.918C52.7165 105.918 52.6666 105.939 52.6298 105.976C52.593 106.012 52.5723 106.062 52.5722 106.115V112.799C52.5723 112.852 52.593 112.902 52.6298 112.938C52.6666 112.975 52.7165 112.996 52.7685 112.996H79.2655C79.3176 112.996 79.3675 112.975 79.4043 112.938C79.4411 112.902 79.4618 112.852 79.4618 112.799V106.115C79.4618 106.062 79.4411 106.012 79.4043 105.976C79.3675 105.939 79.3176 105.918 79.2655 105.918H52.7685Z" fill="#212121"/>
<path d="M85.9392 113.586C87.8904 113.586 89.4721 112.001 89.4721 110.047C89.4721 108.092 87.8904 106.508 85.9392 106.508C83.988 106.508 82.4062 108.092 82.4062 110.047C82.4062 112.001 83.988 113.586 85.9392 113.586Z" fill="#32E0C4"/>
<path d="M87.1169 113.193C86.3793 113.193 85.6583 112.974 85.0451 112.563C84.4318 112.153 83.9538 111.569 83.6716 110.887C83.3893 110.204 83.3155 109.453 83.4594 108.728C83.6032 108.003 83.9584 107.338 84.48 106.815C85.0015 106.293 85.666 105.937 86.3894 105.793C87.1128 105.649 87.8626 105.723 88.544 106.006C89.2254 106.288 89.8079 106.767 90.2176 107.381C90.6274 107.996 90.8461 108.718 90.8461 109.457C90.845 110.447 90.4517 111.397 89.7526 112.097C89.0535 112.798 88.1056 113.191 87.1169 113.193ZM87.1169 106.114C86.457 106.114 85.8119 106.311 85.2632 106.678C84.7144 107.045 84.2868 107.567 84.0342 108.178C83.7817 108.789 83.7156 109.461 83.8444 110.109C83.9731 110.757 84.2909 111.353 84.7575 111.82C85.2242 112.288 85.8187 112.606 86.466 112.735C87.1132 112.864 87.7841 112.798 88.3938 112.545C89.0035 112.292 89.5246 111.864 89.8912 111.314C90.2579 110.764 90.4536 110.118 90.4536 109.457C90.4526 108.571 90.1007 107.721 89.4752 107.095C88.8497 106.468 88.0015 106.115 87.1169 106.114Z" fill="#212121"/>
<path d="M87.1687 110.852L85.2686 108.949L85.8236 108.393L87.0639 109.635L90.5246 104.708L91.1666 105.161L87.1687 110.852Z" fill="#212121"/>
<path opacity="0.1" d="M85.136 61.8034H7.9668V10.017L85.136 61.8034Z" fill="#212121"/>
<path d="M113.633 60.7839H103.956V60.0855C103.956 60.0673 103.952 60.0493 103.945 60.0325C103.938 60.0157 103.928 60.0004 103.915 59.9876C103.902 59.9747 103.887 59.9645 103.87 59.9576C103.854 59.9506 103.836 59.947 103.818 59.947H100.5C100.482 59.947 100.464 59.9506 100.447 59.9576C100.43 59.9645 100.415 59.9747 100.402 59.9876C100.389 60.0004 100.379 60.0157 100.372 60.0325C100.365 60.0493 100.362 60.0673 100.362 60.0855V60.7839H98.288V60.0855C98.288 60.0673 98.2844 60.0493 98.2775 60.0325C98.2706 60.0157 98.2604 60.0004 98.2475 59.9876C98.2347 59.9747 98.2195 59.9645 98.2027 59.9576C98.1859 59.9506 98.1679 59.947 98.1498 59.947H94.832C94.8139 59.947 94.7959 59.9506 94.7791 59.9576C94.7624 59.9645 94.7471 59.9747 94.7343 59.9876C94.7215 60.0004 94.7113 60.0157 94.7043 60.0325C94.6974 60.0493 94.6938 60.0673 94.6938 60.0855V60.7839H92.6202V60.0855C92.6202 60.0673 92.6166 60.0493 92.6097 60.0325C92.6028 60.0157 92.5926 60.0004 92.5797 59.9876C92.5669 59.9747 92.5517 59.9645 92.5349 59.9576C92.5181 59.9506 92.5001 59.947 92.482 59.947H89.1642C89.1461 59.947 89.1281 59.9506 89.1113 59.9576C89.0946 59.9645 89.0793 59.9747 89.0665 59.9876C89.0536 60.0004 89.0435 60.0157 89.0365 60.0325C89.0296 60.0493 89.026 60.0673 89.026 60.0855V60.7839H86.9524V60.0855C86.9524 60.0673 86.9488 60.0493 86.9419 60.0325C86.9349 60.0157 86.9248 60.0004 86.9119 59.9876C86.8991 59.9747 86.8839 59.9645 86.8671 59.9576C86.8503 59.9506 86.8323 59.947 86.8142 59.947H83.4964C83.4783 59.947 83.4603 59.9506 83.4435 59.9576C83.4268 59.9645 83.4115 59.9747 83.3987 59.9876C83.3858 60.0004 83.3757 60.0157 83.3687 60.0325C83.3618 60.0493 83.3582 60.0673 83.3582 60.0855V60.7839H81.2846V60.0855C81.2846 60.0673 81.281 60.0493 81.2741 60.0325C81.2671 60.0157 81.257 60.0004 81.2441 59.9876C81.2313 59.9747 81.216 59.9645 81.1993 59.9576C81.1825 59.9506 81.1645 59.947 81.1464 59.947H77.8286C77.8105 59.947 77.7925 59.9506 77.7757 59.9576C77.759 59.9645 77.7437 59.9747 77.7309 59.9876C77.718 60.0004 77.7079 60.0157 77.7009 60.0325C77.694 60.0493 77.6904 60.0673 77.6904 60.0855V60.7839H75.6168V60.0855C75.6168 60.0673 75.6132 60.0493 75.6063 60.0325C75.5993 60.0157 75.5892 60.0004 75.5763 59.9876C75.5635 59.9747 75.5482 59.9645 75.5315 59.9576C75.5147 59.9506 75.4967 59.947 75.4786 59.947H72.1608C72.1427 59.947 72.1247 59.9506 72.1079 59.9576C72.0911 59.9645 72.0759 59.9747 72.0631 59.9876C72.0502 60.0004 72.0401 60.0157 72.0331 60.0325C72.0262 60.0493 72.0226 60.0673 72.0226 60.0855V60.7839H69.949V60.0855C69.949 60.0673 69.9454 60.0493 69.9385 60.0325C69.9315 60.0157 69.9213 60.0004 69.9085 59.9876C69.8957 59.9747 69.8804 59.9645 69.8637 59.9576C69.8469 59.9506 69.8289 59.947 69.8108 59.947H43.8218C43.8037 59.947 43.7857 59.9506 43.7689 59.9576C43.7521 59.9645 43.7369 59.9747 43.7241 59.9876C43.7112 60.0004 43.701 60.0157 43.6941 60.0325C43.6871 60.0493 43.6836 60.0673 43.6836 60.0855V60.7839H41.61V60.0855C41.61 60.0673 41.6064 60.0493 41.5995 60.0325C41.5925 60.0157 41.5823 60.0004 41.5695 59.9876C41.5566 59.9747 41.5414 59.9645 41.5246 59.9576C41.5079 59.9506 41.4899 59.947 41.4717 59.947H38.154C38.1358 59.947 38.1179 59.9506 38.1011 59.9576C38.0843 59.9645 38.0691 59.9747 38.0562 59.9876C38.0434 60.0004 38.0332 60.0157 38.0263 60.0325C38.0193 60.0493 38.0158 60.0673 38.0158 60.0855V60.7839H35.9422V60.0855C35.9422 60.0673 35.9386 60.0493 35.9317 60.0325C35.9247 60.0157 35.9145 60.0004 35.9017 59.9876C35.8888 59.9747 35.8736 59.9645 35.8568 59.9576C35.8401 59.9506 35.8221 59.947 35.8039 59.947H32.4862C32.468 59.947 32.4501 59.9506 32.4333 59.9576C32.4165 59.9645 32.4013 59.9747 32.3884 59.9876C32.3756 60.0004 32.3654 60.0157 32.3585 60.0325C32.3515 60.0493 32.348 60.0673 32.348 60.0855V60.7839H30.2744V60.0855C30.2744 60.0673 30.2708 60.0493 30.2638 60.0325C30.2569 60.0157 30.2467 60.0004 30.2339 59.9876C30.221 59.9747 30.2058 59.9645 30.189 59.9576C30.1723 59.9506 30.1543 59.947 30.1361 59.947H26.8184C26.8002 59.947 26.7823 59.9506 26.7655 59.9576C26.7487 59.9645 26.7335 59.9747 26.7206 59.9876C26.7078 60.0004 26.6976 60.0157 26.6907 60.0325C26.6837 60.0493 26.6802 60.0673 26.6802 60.0855V60.7839H24.6066V60.0855C24.6066 60.0673 24.603 60.0493 24.596 60.0325C24.5891 60.0157 24.5789 60.0004 24.5661 59.9876C24.5532 59.9747 24.538 59.9645 24.5212 59.9576C24.5045 59.9506 24.4865 59.947 24.4683 59.947H21.1506C21.1324 59.947 21.1145 59.9506 21.0977 59.9576C21.0809 59.9645 21.0657 59.9747 21.0528 59.9876C21.04 60.0004 21.0298 60.0157 21.0229 60.0325C21.0159 60.0493 21.0123 60.0673 21.0123 60.0855V60.7839H18.9388V60.0855C18.9388 60.0673 18.9352 60.0493 18.9282 60.0325C18.9213 60.0157 18.9111 60.0004 18.8983 59.9876C18.8854 59.9747 18.8702 59.9645 18.8534 59.9576C18.8367 59.9506 18.8187 59.947 18.8005 59.947H15.4828C15.4646 59.947 15.4467 59.9506 15.4299 59.9576C15.4131 59.9645 15.3979 59.9747 15.385 59.9876C15.3722 60.0004 15.362 60.0157 15.3551 60.0325C15.3481 60.0493 15.3445 60.0673 15.3445 60.0855V60.7839H13.271V60.0855C13.271 60.0673 13.2674 60.0493 13.2604 60.0325C13.2535 60.0157 13.2433 60.0004 13.2305 59.9876C13.2176 59.9747 13.2024 59.9645 13.1856 59.9576C13.1688 59.9506 13.1509 59.947 13.1327 59.947H9.81498C9.79682 59.947 9.77885 59.9506 9.76208 59.9576C9.7453 59.9645 9.73006 59.9747 9.71723 59.9876C9.70439 60.0004 9.69421 60.0157 9.68726 60.0325C9.68032 60.0493 9.67674 60.0673 9.67674 60.0855V60.7839H3.31774C2.88205 60.7839 2.45062 60.8699 2.04809 61.0369C1.64557 61.2039 1.27982 61.4487 0.971742 61.7573C0.663662 62.066 0.419279 62.4323 0.252547 62.8356C0.0858153 63.2388 -2.57751e-07 63.671 0 64.1074V65.6102C2.0822e-06 66.4917 0.349549 67.337 0.971746 67.9603C1.59394 68.5836 2.43782 68.9337 3.31774 68.9337H113.633C114.068 68.9337 114.5 68.8478 114.902 68.6807C115.305 68.5137 115.67 68.2689 115.979 67.9603C116.287 67.6517 116.531 67.2853 116.698 66.8821C116.864 66.4788 116.95 66.0467 116.95 65.6102V64.1074C116.95 63.671 116.864 63.2388 116.698 62.8356C116.531 62.4323 116.287 62.066 115.979 61.7573C115.67 61.4487 115.305 61.2039 114.902 61.0369C114.5 60.8699 114.068 60.7839 113.633 60.7839Z" fill="#666161"/>
<path d="M83.3877 42.8044H31.5712C31.4151 42.8043 31.2655 42.7421 31.1551 42.6315C31.0447 42.5209 30.9826 42.371 30.9824 42.2146V20.5869C30.9826 20.4305 31.0447 20.2806 31.1551 20.17C31.2655 20.0594 31.4151 19.9972 31.5712 19.9971H83.3877C83.5438 19.9972 83.6934 20.0594 83.8038 20.17C83.9142 20.2806 83.9763 20.4305 83.9765 20.5869V42.2146C83.9763 42.371 83.9142 42.5209 83.8038 42.6315C83.6934 42.7421 83.5438 42.8043 83.3877 42.8044ZM31.5712 20.3903C31.5192 20.3904 31.4693 20.4111 31.4325 20.448C31.3957 20.4848 31.375 20.5348 31.375 20.5869V42.2146C31.375 42.2667 31.3957 42.3167 31.4325 42.3535C31.4693 42.3904 31.5192 42.4111 31.5712 42.4112H83.3877C83.4397 42.4111 83.4896 42.3904 83.5264 42.3535C83.5632 42.3167 83.5839 42.2667 83.5839 42.2146V20.5869C83.5839 20.5348 83.5632 20.4848 83.5264 20.448C83.4896 20.4111 83.4397 20.3904 83.3877 20.3903H31.5712Z" fill="#212121"/>
<path d="M37.4588 32.5805H35.1035C34.9474 32.5803 34.7977 32.5181 34.6873 32.4075C34.5769 32.2969 34.5148 32.147 34.5146 31.9906V29.6312C34.5148 29.4748 34.5769 29.3249 34.6873 29.2143C34.7977 29.1038 34.9474 29.0416 35.1035 29.0414H37.4588C37.6149 29.0416 37.7645 29.1038 37.8749 29.2143C37.9853 29.3249 38.0474 29.4748 38.0476 29.6312V31.9906C38.0474 32.147 37.9853 32.2969 37.8749 32.4075C37.7645 32.5181 37.6149 32.5803 37.4588 32.5805ZM35.1035 29.4346C35.0514 29.4347 35.0016 29.4554 34.9648 29.4923C34.928 29.5291 34.9073 29.5791 34.9072 29.6312V31.9906C34.9073 32.0427 34.928 32.0927 34.9648 32.1296C35.0016 32.1664 35.0514 32.1872 35.1035 32.1872H37.4588C37.5108 32.1872 37.5607 32.1664 37.5975 32.1296C37.6343 32.0927 37.655 32.0427 37.655 31.9906V29.6312C37.655 29.5791 37.6343 29.5291 37.5975 29.4923C37.5607 29.4554 37.5108 29.4347 37.4588 29.4346H35.1035Z" fill="#212121"/>
<path d="M79.4615 32.1873H34.7109V32.5805H79.4615V32.1873Z" fill="#212121"/>
<path d="M195.852 53.0284H51.9834V53.4217H195.852V53.0284Z" fill="#212121"/>
<path d="M51.9832 55.781C53.5008 55.781 54.731 54.5487 54.731 53.0284C54.731 51.5082 53.5008 50.2758 51.9832 50.2758C50.4656 50.2758 49.2354 51.5082 49.2354 53.0284C49.2354 54.5487 50.4656 55.781 51.9832 55.781Z" fill="#212121"/>
<path d="M195.852 55.5844C197.045 55.5844 198.011 54.6161 198.011 53.4217C198.011 52.2272 197.045 51.2589 195.852 51.2589C194.66 51.2589 193.693 52.2272 193.693 53.4217C193.693 54.6161 194.66 55.5844 195.852 55.5844Z" fill="#212121"/>
<path d="M206.451 99.0363C207.643 99.0363 208.61 98.068 208.61 96.8736C208.61 95.6791 207.643 94.7108 206.451 94.7108C205.259 94.7108 204.292 95.6791 204.292 96.8736C204.292 98.068 205.259 99.0363 206.451 99.0363Z" fill="#212121"/>
<path d="M63.1707 99.0363C64.3631 99.0363 65.3298 98.068 65.3298 96.8736C65.3298 95.6791 64.3631 94.7108 63.1707 94.7108C61.9783 94.7108 61.0117 95.6791 61.0117 96.8736C61.0117 98.068 61.9783 99.0363 63.1707 99.0363Z" fill="#212121"/>
</g>
<defs>
<clipPath id="clip0_2622_383">
<rect width="216" height="136" fill="white"/>
</clipPath>
</defs>
</svg>
