<svg width="21" height="18" viewBox="0 0 21 18" fill="none" xmlns="http://www.w3.org/2000/svg">
<path d="M15.3598 3.22647C14.0019 2.08043 12.1602 1.43658 10.2398 1.43658C8.31942 1.43658 6.4777 2.08043 5.1198 3.22647C3.76189 4.37252 2.99902 5.92689 2.99902 7.54764C2.99902 9.16839 3.76189 10.7228 5.1198 11.8688L9.61686 15.6714C9.69619 15.7389 9.79057 15.7925 9.89456 15.8291C9.99854 15.8656 10.1101 15.8845 10.2227 15.8845C10.3354 15.8845 10.4469 15.8656 10.5509 15.8291C10.6549 15.7925 10.7493 15.7389 10.8286 15.6714L15.3598 11.8328C16.712 10.6915 17.4717 9.14363 17.4717 7.52963C17.4717 5.91564 16.712 4.36775 15.3598 3.22647ZM14.1395 10.8029L10.2398 14.1086L6.34006 10.8029C5.56963 10.1521 5.04511 9.3231 4.83282 8.42072C4.62052 7.51835 4.72998 6.58312 5.14736 5.73324C5.56474 4.88336 6.2713 4.157 7.17772 3.64597C8.08414 3.13494 9.14973 2.86218 10.2398 2.86218C11.3299 2.86218 12.3954 3.13494 13.3019 3.64597C14.2083 4.157 14.9149 4.88336 15.3322 5.73324C15.7496 6.58312 15.8591 7.51835 15.6468 8.42072C15.4345 9.3231 14.91 10.1521 14.1395 10.8029ZM7.6798 5.33664C6.99091 5.91983 6.60408 6.70974 6.60408 7.53323C6.60408 8.35673 6.99091 9.14664 7.6798 9.72983C8.19159 10.1625 8.84339 10.458 9.55342 10.5792C10.2634 10.7005 11.0001 10.642 11.6709 10.4112C12.3417 10.1805 12.9169 9.78765 13.3242 9.28205C13.7314 8.77645 13.9528 8.1806 13.9603 7.56924C13.9642 7.16104 13.871 6.75633 13.6863 6.37904C13.5016 6.00175 13.2292 5.65954 12.8851 5.37265C12.5469 5.08067 12.1437 4.84802 11.6985 4.68808C11.2534 4.52815 10.7751 4.44409 10.2913 4.44074C9.80755 4.43739 9.32775 4.51482 8.87956 4.66858C8.43136 4.82234 8.02362 5.04938 7.6798 5.33664ZM11.6819 8.70715C11.3586 8.98424 10.9312 9.15792 10.4729 9.19851C10.0146 9.23909 9.55377 9.14405 9.1693 8.92964C8.78482 8.71523 8.50053 8.39476 8.36503 8.02303C8.22953 7.65129 8.25123 7.25138 8.42643 6.89165C8.60162 6.53193 8.91943 6.23474 9.32552 6.05088C9.73161 5.86703 10.2008 5.80794 10.6528 5.88371C11.1048 5.95948 11.5115 6.16541 11.8035 6.46629C12.0955 6.76717 12.2547 7.14431 12.2537 7.53323C12.2412 7.97779 12.0203 8.40001 11.6393 8.70715H11.6819Z" fill="white"/>
</svg>
