<svg width="300" height="253" viewBox="0 0 300 253" fill="none" xmlns="http://www.w3.org/2000/svg">
<path d="M300 203.643H0V203.798H300V203.643Z" fill="#EBEBEB"/>
<path d="M103.932 207.611H90.0244V207.767H103.932V207.611Z" fill="#EBEBEB"/>
<path d="M275.262 210.945H241.26V211.1H275.262V210.945Z" fill="#EBEBEB"/>
<path d="M59.6338 210.945H25.6318V211.1H59.6338V210.945Z" fill="#EBEBEB"/>
<path d="M142.2 175.902H26.3458C25.4382 175.9 24.5683 175.525 23.9271 174.859C23.2859 174.193 22.9258 173.291 22.9258 172.35V3.52052C22.9337 2.58505 23.2973 1.69058 23.9376 1.03141C24.578 0.372241 25.4434 0.00160251 26.3458 0H142.2C143.108 0 143.98 0.374188 144.622 1.04025C145.265 1.7063 145.626 2.60967 145.626 3.55162V172.35C145.626 173.292 145.265 174.195 144.622 174.861C143.98 175.527 143.108 175.902 142.2 175.902ZM26.3458 0.1244C25.478 0.126048 24.6462 0.484578 24.0332 1.1213C23.4201 1.75801 23.0758 2.62089 23.0758 3.52052V172.35C23.0758 173.25 23.4201 174.112 24.0332 174.749C24.6462 175.386 25.478 175.744 26.3458 175.746H142.2C143.068 175.743 143.899 175.384 144.513 174.748C145.126 174.112 145.473 173.25 145.476 172.35V3.52052C145.473 2.62082 145.126 1.75891 144.513 1.12272C143.899 0.486535 143.068 0.127678 142.2 0.1244H26.3458Z" fill="#EBEBEB"/>
<path d="M271.986 175.902H156.126C155.219 175.898 154.349 175.523 153.707 174.858C153.065 174.192 152.703 173.291 152.7 172.35V3.52052C152.71 2.58448 153.075 1.69002 153.716 1.03102C154.357 0.372024 155.223 0.00158504 156.126 0H271.986C272.888 0.0032372 273.751 0.374599 274.39 1.03359C275.03 1.69259 275.392 2.58612 275.4 3.52052V172.35C275.401 172.816 275.313 173.277 275.142 173.707C274.971 174.138 274.72 174.529 274.403 174.859C274.086 175.189 273.709 175.45 273.295 175.629C272.88 175.808 272.435 175.901 271.986 175.902ZM156.126 0.1244C155.258 0.127678 154.427 0.486535 153.813 1.12272C153.2 1.75891 152.853 2.62082 152.85 3.52052V172.35C152.853 173.25 153.2 174.112 153.813 174.748C154.427 175.384 155.258 175.743 156.126 175.746H271.986C272.854 175.743 273.685 175.384 274.299 174.748C274.913 174.112 275.259 173.25 275.262 172.35V3.52052C275.259 2.62082 274.913 1.75891 274.299 1.12272C273.685 0.486535 272.854 0.127678 271.986 0.1244H156.126Z" fill="#EBEBEB"/>
<path d="M91.0675 218.502C91.0675 218.502 102.846 211.66 103.632 201.901C104.417 192.142 95.1535 190.177 91.0675 186.762C86.9815 183.347 86.8315 180.25 86.6695 174.552C86.5075 168.854 84.7855 162.827 78.6655 157.136C72.5455 151.445 71.9095 149.324 72.6655 141.673C73.4215 134.022 68.4235 124.419 62.1415 126.048C55.8595 127.678 55.3915 137.929 56.6455 144.441C57.7914 150.775 56.6351 157.325 53.3995 162.827C50.3995 167.716 49.1575 176.343 53.3995 181.879C57.6415 187.415 60.4675 192.298 58.4215 198.157C56.3755 204.016 50.0995 206.293 57.3235 218.502H91.0675Z" fill="#E6E6E6"/>
<path d="M194.85 218.39H215.106C215.106 218.39 216.99 201.136 216.678 187.135C216.366 173.134 215.58 150.997 207.078 151.644C198.576 152.29 188.886 174.925 194.85 218.39Z" fill="#F5F5F5"/>
<path d="M205.602 218.39C205.602 218.39 225.312 172.81 241.176 181.761C257.04 190.711 224.154 218.621 224.154 218.621L205.602 218.39Z" fill="#F0F0F0"/>
<path d="M203.232 218.62C203.232 218.62 204.528 203.786 199.146 188.615C193.764 173.445 187.092 164.357 179.556 167.287C172.02 170.216 172.668 189.921 182.784 218.39L203.232 218.62Z" fill="#E6E6E6"/>
<path d="M215.106 218.39C215.106 218.39 223.686 204.458 228.42 191.29C233.154 178.122 234.234 168.276 229.926 165.85C225.618 163.424 205.386 186.14 203.232 218.621L215.106 218.39Z" fill="#E6E6E6"/>
<path d="M188.922 218.39C188.922 218.39 177.834 173.917 158.892 180.598C139.95 187.278 173.892 218.621 173.892 218.621H189.876" fill="#F0F0F0"/>
<path d="M224.274 206.255C224.274 206.255 226.578 191.638 244.608 173.47C262.638 155.301 268.074 141.829 264.858 123.517C264.858 123.517 281.31 147.464 270.666 176.903C260.022 206.342 243.504 216.207 229.95 220.082C216.396 223.957 224.274 206.255 224.274 206.255Z" fill="#EBEBEB" stroke="#EBEBEB" stroke-miterlimit="10"/>
<path d="M224.502 220.294C228.156 210.416 233.724 204.607 239.97 198.717C242.256 196.558 244.638 194.363 247.05 192.005C248.694 190.382 250.356 188.653 252.006 186.762C253.819 184.696 255.526 182.533 257.118 180.28C258.917 177.73 260.567 175.072 262.062 172.319C262.374 171.753 262.662 171.181 262.986 170.583C263.376 169.818 263.754 169.06 264.102 168.307C273.378 148.403 268.416 131.497 265.734 124.941C265.339 123.941 264.886 122.967 264.378 122.024" stroke="#E0E0E0" stroke-width="2" stroke-miterlimit="10"/>
<path d="M258.288 156.987C261.459 159.922 263.522 163.929 264.108 168.295" stroke="#E0E0E0" stroke-width="2" stroke-miterlimit="10"/>
<path d="M257.124 180.274C256.956 175.982 253.296 169.731 251.16 166.429" stroke="#E0E0E0" stroke-width="2" stroke-miterlimit="10"/>
<path d="M241.08 177.195C242.754 179.938 246.24 186.19 247.05 192.005" stroke="#E0E0E0" stroke-width="2" stroke-miterlimit="10"/>
<path d="M240 198.717C240 198.717 250.386 197.043 258.744 199.886" stroke="#E0E0E0" stroke-width="2" stroke-miterlimit="10"/>
<path d="M267.966 183.683C260.91 182.849 252.258 186.656 252.012 186.755" stroke="#E0E0E0" stroke-width="2" stroke-miterlimit="10"/>
<path d="M273.3 167.131C267.576 168.139 262.26 172.163 262.068 172.306" stroke="#E0E0E0" stroke-width="2" stroke-miterlimit="10"/>
<path d="M150 252.364C214.25 252.364 266.334 249.212 266.334 245.323C266.334 241.434 214.25 238.282 150 238.282C85.7505 238.282 33.666 241.434 33.666 245.323C33.666 249.212 85.7505 252.364 150 252.364Z" fill="#F5F5F5"/>
<path opacity="0.12" d="M140.172 77.4637C138.57 77.0097 138.54 74.8762 138.54 74.8762L140.076 75.1934C139.992 75.9507 140.024 76.717 140.172 77.4637Z" fill="black"/>
<path d="M224.556 19.313V108.981C224.556 110.31 224.046 111.585 223.14 112.525C222.233 113.466 221.003 113.994 219.72 113.994H89.01C87.7331 113.986 86.5114 113.454 85.6119 112.514C84.7124 111.575 84.2084 110.304 84.21 108.981V19.313C84.2084 17.9893 84.7124 16.7189 85.6119 15.7794C86.5114 14.8399 87.7331 14.3079 89.01 14.2997H219.72C220.355 14.2997 220.984 14.4294 221.571 14.6813C222.157 14.9332 222.69 15.3025 223.14 15.768C223.589 16.2336 223.945 16.7862 224.188 17.3945C224.431 18.0027 224.556 18.6546 224.556 19.313Z" fill="#407BFF"/>
<path opacity="0.7" d="M224.556 19.313V108.981C224.556 110.31 224.046 111.585 223.14 112.525C222.233 113.466 221.003 113.994 219.72 113.994H89.01C87.7331 113.986 86.5114 113.454 85.6119 112.514C84.7124 111.575 84.2084 110.304 84.21 108.981V19.313C84.2084 17.9893 84.7124 16.7189 85.6119 15.7794C86.5114 14.8399 87.7331 14.3079 89.01 14.2997H219.72C220.355 14.2997 220.984 14.4294 221.571 14.6813C222.157 14.9332 222.69 15.3025 223.14 15.768C223.589 16.2336 223.945 16.7862 224.188 17.3945C224.431 18.0027 224.556 18.6546 224.556 19.313Z" fill="white" stroke="white" stroke-miterlimit="10"/>
<path d="M216.42 21.8323C217.139 21.8323 217.722 21.228 217.722 20.4826C217.722 19.7371 217.139 19.1328 216.42 19.1328C215.701 19.1328 215.118 19.7371 215.118 20.4826C215.118 21.228 215.701 21.8323 216.42 21.8323Z" fill="#407BFF"/>
<path d="M210.198 20.4826C210.199 20.751 210.124 21.0138 209.981 21.2376C209.838 21.4614 209.634 21.6361 209.395 21.7397C209.156 21.8433 208.893 21.871 208.639 21.8194C208.384 21.7678 208.151 21.6392 207.967 21.4498C207.784 21.2604 207.659 21.0188 207.608 20.7556C207.557 20.4924 207.582 20.2194 207.681 19.9713C207.78 19.7232 207.947 19.511 208.163 19.3618C208.378 19.2125 208.631 19.1328 208.89 19.1328C209.235 19.1344 209.566 19.277 209.811 19.5296C210.056 19.7822 210.195 20.1245 210.198 20.4826Z" fill="#407BFF"/>
<path d="M202.669 20.4826C202.67 20.751 202.594 21.0138 202.451 21.2376C202.308 21.4614 202.104 21.6361 201.865 21.7397C201.627 21.8433 201.363 21.871 201.109 21.8194C200.855 21.7678 200.621 21.6392 200.438 21.4498C200.254 21.2604 200.129 21.0188 200.078 20.7556C200.027 20.4924 200.053 20.2194 200.152 19.9713C200.251 19.7232 200.418 19.511 200.633 19.3618C200.849 19.2125 201.102 19.1328 201.361 19.1328C201.706 19.1344 202.037 19.277 202.282 19.5296C202.527 19.7822 202.666 20.1245 202.669 20.4826Z" fill="#407BFF"/>
<path d="M214.272 37.5128V127.18C214.265 128.503 213.752 129.769 212.847 130.701C211.942 131.633 210.718 132.156 209.442 132.156H78.7265C77.4507 132.156 76.2267 131.633 75.3217 130.701C74.4168 129.769 73.9044 128.503 73.8965 127.18V37.5128C73.8965 36.1843 74.4052 34.9101 75.3108 33.9701C76.2164 33.0301 77.4449 32.5012 78.7265 32.4995H209.442C210.724 32.5012 211.953 33.0301 212.858 33.9701C213.764 34.9101 214.272 36.1843 214.272 37.5128Z" fill="#407BFF"/>
<path opacity="0.8" d="M214.272 37.5128V127.18C214.265 128.503 213.752 129.769 212.847 130.701C211.942 131.633 210.718 132.156 209.442 132.156H78.7265C77.4507 132.156 76.2267 131.633 75.3217 130.701C74.4168 129.769 73.9044 128.503 73.8965 127.18V37.5128C73.8965 36.1843 74.4052 34.9101 75.3108 33.9701C76.2164 33.0301 77.4449 32.5012 78.7265 32.4995H209.442C210.724 32.5012 211.953 33.0301 212.858 33.9701C213.764 34.9101 214.272 36.1843 214.272 37.5128Z" fill="white"/>
<path d="M214.279 43.0238H182.965V125.053H214.279V43.0238Z" fill="#407BFF"/>
<path opacity="0.2" d="M214.279 43.0238H182.965V125.053H214.279V43.0238Z" fill="black"/>
<path d="M214.279 67.661H182.965V68.706H214.279V67.661Z" fill="#FAFAFA"/>
<path d="M214.279 93.4056H182.965V94.4506H214.279V93.4056Z" fill="#FAFAFA"/>
<path d="M214.279 118.771H182.965V119.816H214.279V118.771Z" fill="#FAFAFA"/>
<path d="M196.62 74.8389V87.0923L205.548 80.9656L196.62 74.8389Z" fill="#FAFAFA"/>
<path d="M196.62 100.478V112.737L205.548 106.611L196.62 100.478Z" fill="#FAFAFA"/>
<path d="M196.62 48.746V61.0056L205.548 54.8727L196.62 48.746Z" fill="#FAFAFA"/>
<path d="M119.809 93.4056C119.809 93.4056 111.805 105.777 109.309 108.234C109.309 108.234 95.8926 109.478 90.3726 105.566L88.9746 109.117C88.9746 109.117 101.719 116.581 110.353 114.759C118.987 112.936 125.353 95.6573 125.353 95.6573L119.809 93.4056Z" fill="#B55B52"/>
<path d="M158.706 86.0473C158.706 86.0473 166.356 88.2181 171.126 88.6348C171.126 88.6348 174.726 79.9703 175.326 72.1021L178.038 72.2576C178.038 72.2576 180.534 87.5836 173.988 93.7912C169.464 98.0892 154.368 90.1276 154.368 90.1276L158.706 86.0473Z" fill="#B55B52"/>
<path d="M137.178 52.248C137.178 52.248 126.81 51.2093 125.736 62.1627C125.143 68.9603 126.203 75.8036 128.82 82.0667C128.82 82.0667 135.09 95.2966 142.692 93.4555C150.294 91.6144 156.738 87.3475 155.394 80.2069C154.05 73.0664 151.548 73.3649 151.638 63.4129C151.728 53.4609 142.722 47.6826 137.178 52.248Z" fill="#263238"/>
<path d="M148.495 67.9347C147.409 73.4269 144.991 75.6164 140.095 75.1934C140.01 75.9507 140.043 76.717 140.191 77.4637C140.312 78.3586 140.712 79.1881 141.329 79.8266C141.946 80.4651 142.747 80.878 143.611 81.0029C147.811 81.7555 145.513 87.3597 145.513 87.3597L141.313 89.4994L135.787 86.1966L131.587 81.5503H133.057C133.057 81.5503 135.901 77.0905 133.057 69.583C132.435 69.2055 131.91 68.6772 131.529 68.0434C131.148 67.4096 130.92 66.6892 130.867 65.9443C130.747 63.4563 133.225 63.307 134.161 64.24C134.161 64.24 138.427 62.3118 137.791 54.8602C137.791 54.8602 141.991 58.1319 147.391 57.1803C147.385 57.2238 149.575 62.4362 148.495 67.9347Z" fill="#B55B52"/>
<path d="M144.637 63.363L144.691 67.207C144.989 67.3261 145.308 67.3777 145.626 67.3584C145.945 67.3391 146.256 67.2493 146.539 67.095L144.637 63.363Z" fill="#A02724"/>
<path d="M138.954 59.0403C138.919 59.0486 138.882 59.0486 138.846 59.0403C138.823 59.0257 138.803 59.0065 138.788 58.9839C138.772 58.9612 138.761 58.9356 138.754 58.9084C138.748 58.8812 138.747 58.8531 138.752 58.8255C138.756 58.798 138.766 58.7717 138.78 58.748C139.059 58.3066 139.476 57.9783 139.962 57.8186C140.447 57.6589 140.971 57.6773 141.444 57.871C141.47 57.8793 141.493 57.893 141.514 57.9112C141.534 57.9294 141.551 57.9516 141.563 57.9767C141.574 58.0017 141.581 58.0289 141.582 58.0567C141.584 58.0846 141.579 58.1124 141.57 58.1384C141.552 58.1911 141.515 58.2343 141.467 58.2588C141.419 58.2832 141.363 58.2869 141.312 58.2691C140.927 58.1052 140.498 58.085 140.1 58.212C139.702 58.3391 139.358 58.6055 139.128 58.9657C139.107 58.9917 139.08 59.0121 139.05 59.0251C139.02 59.0381 138.987 59.0433 138.954 59.0403Z" fill="#263238"/>
<path d="M148.242 60.2283C148.189 60.2286 148.138 60.2087 148.098 60.1723C147.498 59.6063 146.454 60.0231 146.442 60.0293C146.391 60.0477 146.336 60.0451 146.286 60.0219C146.237 59.9987 146.199 59.9568 146.178 59.9049C146.169 59.8787 146.164 59.8509 146.165 59.823C146.166 59.795 146.172 59.7675 146.183 59.7421C146.194 59.7166 146.21 59.6937 146.23 59.6747C146.25 59.6557 146.273 59.6409 146.298 59.6312C146.346 59.6312 147.612 59.1149 148.38 59.8613C148.419 59.901 148.44 59.9547 148.44 60.0106C148.44 60.0666 148.419 60.1203 148.38 60.1599C148.344 60.1994 148.295 60.2237 148.242 60.2283Z" fill="#263238"/>
<path d="M143.058 69.0419C142.36 69.0721 141.666 68.911 141.046 68.5747C140.427 68.2383 139.904 67.7387 139.53 67.1261C139.52 67.0903 139.522 67.0518 139.535 67.0173C139.549 66.9827 139.574 66.9542 139.606 66.9366C139.638 66.919 139.675 66.9134 139.71 66.9207C139.745 66.9281 139.777 66.9479 139.8 66.9768C140.149 67.5388 140.634 67.9959 141.207 68.3026C141.78 68.6093 142.42 68.7549 143.064 68.7247C143.104 68.7247 143.142 68.741 143.17 68.7702C143.198 68.7994 143.214 68.8389 143.214 68.8802C143.214 68.923 143.198 68.9642 143.168 68.9945C143.139 69.0248 143.099 69.0419 143.058 69.0419Z" fill="#263238"/>
<path d="M141.985 62.7037C141.985 63.164 141.763 63.5372 141.463 63.5496C141.163 63.562 140.911 63.1951 140.899 62.7348C140.887 62.2745 141.115 61.9013 141.415 61.8889C141.715 61.8764 141.973 62.2434 141.985 62.7037Z" fill="#263238"/>
<path d="M147.319 62.7535C147.319 63.2075 147.097 63.587 146.797 63.5994C146.497 63.6118 146.245 63.2449 146.227 62.7846C146.209 62.3243 146.449 61.9511 146.749 61.9387C147.049 61.9262 147.307 62.2932 147.319 62.7535Z" fill="#263238"/>
<path d="M141.33 61.9076L142.692 61.5033C142.692 61.5033 142.446 62.2621 141.33 61.9076Z" fill="#263238"/>
<path d="M146.748 61.9387L147.75 61.7894C147.709 61.8848 147.644 61.9677 147.564 62.0306C147.483 62.0935 147.388 62.1342 147.289 62.1491C147.189 62.164 147.087 62.1525 146.992 62.1157C146.898 62.079 146.814 62.0181 146.748 61.9387Z" fill="#263238"/>
<path d="M161.298 85.7987L156.6 96.522L154.104 95.5828C154.104 95.5828 154.356 115.051 152.304 125.053H127.884L126.48 98.4813L125.202 101.255L116.202 96.0182C116.202 96.0182 118.692 85.4442 122.58 83.5782C124.434 82.6887 128.388 82.0045 132.456 81.5629C136.163 81.1276 139.893 80.9448 143.622 81.0155C143.622 81.0155 144.006 81.0155 144.684 81.0155C150.507 81.2413 156.197 82.8796 161.298 85.7987Z" fill="#407BFF"/>
<path d="M175.326 72.1022C174.4 70.737 173.785 69.1717 173.526 67.5243C173.273 65.751 173.432 63.9406 173.988 62.2435L178.836 62.0693L179.436 66.4669C179.674 68.508 179.181 70.5684 178.05 72.2577L175.326 72.1022Z" fill="#B55B52"/>
<path d="M90.3728 105.566L87.8468 100.894L84.7748 99.7872L82.5908 104.017L84.5408 106.791C84.5408 106.791 87.1148 109.055 88.9748 109.117L90.3728 105.566Z" fill="#B55B52"/>
<path d="M144.655 81.0155C144.613 87.7207 140.569 95.0665 140.569 95.0665C136.969 91.4651 133.369 83.7399 132.427 81.5504C136.133 81.1152 139.863 80.9323 143.593 81.0031C143.593 81.0031 144.001 80.9906 144.655 81.0155Z" fill="#B55B52"/>
<path opacity="0.12" d="M125.196 101.255L126.456 94.0588L126.48 98.4875L125.196 101.255Z" fill="black"/>
<path opacity="0.12" d="M156.612 96.5219L152.58 93.4056L154.116 95.5826L156.612 96.5219Z" fill="black"/>
<path d="M130.05 212.313L135.822 218.788L122.43 231.993L117.654 228.473L130.05 212.313Z" fill="#B55B52"/>
<path d="M123.601 231.682C123.925 233.698 124.399 235.943 127.159 239.887C127.759 240.764 126.163 242.406 124.357 240.67C122.551 238.935 119.959 236.211 118.651 234.96C116.521 232.914 115.651 232.236 113.917 230.644C113.89 230.624 113.866 230.601 113.845 230.575C113.762 230.486 113.697 230.381 113.654 230.265C113.611 230.15 113.59 230.027 113.593 229.903C113.596 229.78 113.622 229.658 113.671 229.545C113.719 229.432 113.788 229.329 113.875 229.244L117.673 226.053C117.76 225.983 117.87 225.948 117.981 225.956C118.092 225.964 118.196 226.014 118.273 226.097L123.115 230.737C123.37 230.991 123.54 231.322 123.601 231.682Z" fill="#263238"/>
<path d="M122.875 231.564C122.86 231.54 122.852 231.512 122.852 231.484C122.852 231.455 122.86 231.427 122.875 231.403C122.893 231.39 122.914 231.381 122.935 231.378C122.957 231.375 122.98 231.377 123.001 231.384C123.277 231.477 125.743 232.267 126.001 233.051C126.026 233.123 126.033 233.201 126.022 233.278C126.01 233.354 125.98 233.426 125.935 233.486C125.868 233.587 125.778 233.667 125.673 233.721C125.568 233.774 125.451 233.798 125.335 233.791C124.851 233.687 124.411 233.425 124.081 233.045C123.637 232.59 123.233 232.094 122.875 231.564ZM123.337 231.751C124.159 232.833 124.903 233.48 125.359 233.48C125.436 233.486 125.514 233.469 125.583 233.433C125.653 233.397 125.712 233.343 125.755 233.275C125.769 233.249 125.776 233.22 125.776 233.191C125.776 233.162 125.769 233.133 125.755 233.107C125.716 233.021 125.661 232.945 125.593 232.883C124.903 232.384 124.142 232.002 123.337 231.751Z" fill="#407BFF"/>
<path d="M122.839 231.508C122.832 231.485 122.832 231.461 122.839 231.438C122.845 231.415 122.858 231.394 122.875 231.378C122.917 231.334 124.003 230.302 124.927 230.383C125.202 230.405 125.459 230.539 125.641 230.756C125.899 231.061 125.857 231.278 125.779 231.378C125.437 231.931 123.643 231.863 122.929 231.595L122.881 231.564C122.863 231.548 122.849 231.529 122.839 231.508ZM124.921 230.662C124.295 230.724 123.705 230.995 123.241 231.434C124.033 231.627 125.341 231.571 125.545 231.241C125.545 231.241 125.611 231.135 125.443 230.936L125.383 230.874C125.256 230.752 125.093 230.677 124.921 230.662Z" fill="#407BFF"/>
<path d="M127.429 224.138L135.295 224.02L134.203 244.514L128.545 244.309L127.429 224.138Z" fill="#B55B52"/>
<path d="M135.534 243.003C137.136 244.309 137.934 245.684 142.422 246.698C143.424 246.928 143.454 249.36 141.084 249.341C138.714 249.322 136.188 249.105 134.484 249.105C131.694 249.105 130.632 249.235 128.424 249.235C128.294 249.233 128.165 249.204 128.045 249.15C127.925 249.095 127.816 249.017 127.725 248.92C127.635 248.822 127.563 248.707 127.515 248.581C127.467 248.455 127.444 248.32 127.446 248.184L127.83 242.997C127.837 242.886 127.885 242.781 127.965 242.707C128.044 242.632 128.149 242.593 128.256 242.599L134.61 242.642C134.947 242.658 135.271 242.784 135.534 243.003Z" fill="#263238"/>
<path d="M131.85 117.701C131.166 130.421 147.294 168.444 149.094 181.767C143.538 195.146 129 212.201 129 212.201L135.888 219.989C135.888 219.989 160.008 197.703 161.262 182.171C162.306 168.892 153.246 118.976 153.246 118.976L131.85 117.701Z" fill="#407BFF"/>
<path d="M131.85 117.701C131.166 130.421 147.294 168.444 149.094 181.767C143.538 195.146 129 212.201 129 212.201L135.888 219.989C135.888 219.989 160.008 197.703 161.262 182.171C162.306 168.892 153.246 118.976 153.246 118.976L131.85 117.701Z" fill="#263238"/>
<path d="M129.181 210.385L138.193 219.255L135.763 220.835L127.519 213.147L129.181 210.385Z" fill="#407BFF"/>
<path opacity="0.3" d="M137.04 141.847C140.82 153.951 145.668 167.131 147.936 176.132C148.35 166.341 148.032 148.901 141.426 139.434C138.342 134.974 137.124 137.194 137.04 141.847Z" fill="black"/>
<path d="M127.74 117.85C123.054 131.23 126.702 161.434 126.954 183.079C125.55 199.395 127.428 224.131 127.428 224.131L135.888 224.492C135.888 224.492 138.438 195.296 140.178 177.077C141.654 161.739 146.922 118.609 146.922 118.609L127.74 117.85Z" fill="#407BFF"/>
<path d="M127.477 117.384C122.791 130.757 126.703 161.434 126.955 183.08C125.551 199.395 127.429 224.132 127.429 224.132L135.889 224.492C135.889 224.492 138.439 195.296 140.179 177.077C141.655 161.739 146.923 118.609 146.923 118.609L127.477 117.384Z" fill="#263238"/>
<path d="M126.198 221.979L137.166 222.297L136.488 225.456L126.792 225.742L126.198 221.979Z" fill="#407BFF"/>
<path d="M137.653 243.413C137.149 243.917 135.853 243.675 135.085 243.494C135.059 243.486 135.035 243.47 135.016 243.45C134.997 243.429 134.984 243.404 134.977 243.376C134.972 243.35 134.975 243.324 134.984 243.299C134.994 243.275 135.01 243.254 135.031 243.239C135.211 243.109 136.831 241.995 137.533 242.288C137.61 242.322 137.678 242.377 137.728 242.447C137.779 242.517 137.811 242.599 137.821 242.686C137.847 242.792 137.85 242.903 137.829 243.011C137.808 243.118 137.764 243.22 137.701 243.308C137.697 243.347 137.68 243.385 137.653 243.413ZM135.457 243.264C136.453 243.476 137.191 243.445 137.461 243.19C137.518 243.124 137.557 243.044 137.574 242.957C137.591 242.871 137.585 242.781 137.557 242.698C137.557 242.659 137.545 242.621 137.524 242.589C137.502 242.556 137.472 242.532 137.437 242.518C137.083 242.356 136.123 242.847 135.457 243.283V243.264Z" fill="#407BFF"/>
<path d="M135.18 243.445C135.159 243.454 135.137 243.459 135.114 243.459C135.091 243.459 135.069 243.454 135.048 243.445C135.028 243.431 135.011 243.414 134.997 243.394C134.984 243.373 134.974 243.351 134.97 243.326C134.97 243.252 134.874 241.566 135.444 241.006C135.516 240.932 135.605 240.877 135.702 240.846C135.799 240.814 135.902 240.808 136.002 240.826C136.111 240.83 136.216 240.87 136.301 240.941C136.387 241.011 136.448 241.108 136.476 241.218C136.477 241.511 136.422 241.802 136.314 242.073C136.206 242.344 136.047 242.591 135.846 242.798C135.659 243.049 135.434 243.267 135.18 243.445ZM135.228 243.059C135.744 242.617 136.32 241.672 136.218 241.268C136.206 241.214 136.176 241.167 136.133 241.136C136.089 241.105 136.036 241.092 135.984 241.1C135.921 241.087 135.856 241.091 135.795 241.112C135.734 241.133 135.68 241.169 135.636 241.218L135.582 241.28C135.307 241.827 135.185 242.443 135.228 243.059Z" fill="#407BFF"/>
<path d="M133.098 80.095H131.028V92.734H133.098V80.095Z" fill="#FAFAFA"/>
<path d="M128.251 80.095H126.181V92.734H128.251V80.095Z" fill="#FAFAFA"/>
<path d="M138.878 89.3151C140.137 83.807 136.851 78.2831 131.538 76.9771C126.225 75.671 120.896 79.0775 119.637 84.5855C118.377 90.0936 121.663 95.6175 126.976 96.9235C132.289 98.2295 137.618 94.8231 138.878 89.3151Z" stroke="#FAFAFA" stroke-width="0.996895" stroke-miterlimit="10"/>
<path d="M214.272 37.5128V43.0237H73.8721V37.5128C73.8721 36.1843 74.3807 34.9101 75.2864 33.9701C76.192 33.0301 77.4205 32.5012 78.7021 32.4995H209.442C210.724 32.5012 211.952 33.0301 212.858 33.9701C213.763 34.9101 214.272 36.1843 214.272 37.5128Z" fill="#407BFF"/>
<path d="M214.272 125.053V127.18C214.265 128.503 213.752 129.769 212.847 130.701C211.942 131.633 210.718 132.156 209.442 132.156H78.7265C77.4507 132.156 76.2267 131.633 75.3217 130.701C74.4168 129.769 73.9044 128.503 73.8965 127.18V125.053H214.272Z" fill="#407BFF"/>
<path d="M101.617 40.4921H81.1088C80.5195 40.4921 79.9542 40.2498 79.5369 39.8184C79.1196 39.387 78.8844 38.8016 78.8828 38.1907C78.8828 37.5787 79.1173 36.9917 79.5348 36.5589C79.9523 36.1262 80.5184 35.8831 81.1088 35.8831H101.617C101.909 35.8831 102.199 35.9427 102.469 36.0587C102.739 36.1747 102.984 36.3447 103.191 36.5589C103.398 36.7732 103.562 37.0276 103.673 37.3076C103.785 37.5876 103.843 37.8876 103.843 38.1907C103.841 38.8016 103.606 39.387 103.189 39.8184C102.771 40.2498 102.206 40.4921 101.617 40.4921Z" stroke="white" stroke-width="0.5" stroke-miterlimit="10"/>
<path d="M112.752 40.4921H109.752C109.163 40.4921 108.599 40.2496 108.182 39.818C107.766 39.3864 107.532 38.801 107.532 38.1907C107.532 37.5797 107.766 36.9937 108.182 36.5611C108.598 36.1286 109.163 35.8847 109.752 35.8831H112.752C113.343 35.8831 113.909 36.1262 114.326 36.5589C114.744 36.9917 114.978 37.5787 114.978 38.1907C114.977 38.8016 114.741 39.387 114.324 39.8184C113.907 40.2498 113.342 40.4921 112.752 40.4921Z" stroke="white" stroke-width="0.5" stroke-miterlimit="10"/>
<path d="M170.994 45.8538H86.19C81.2062 45.8538 77.166 50.0421 77.166 55.2086V113.328C77.166 118.495 81.2062 122.683 86.19 122.683H170.994C175.978 122.683 180.018 118.495 180.018 113.328V55.2086C180.018 50.0421 175.978 45.8538 170.994 45.8538Z" stroke="white" stroke-width="0.5" stroke-miterlimit="10"/>
<path d="M108.762 52.4845H72.5164C69.7826 52.4845 67.5664 54.7819 67.5664 57.616V71.0014C67.5664 73.8355 69.7826 76.1329 72.5164 76.1329H108.762C111.496 76.1329 113.712 73.8355 113.712 71.0014V57.616C113.712 54.7819 111.496 52.4845 108.762 52.4845Z" fill="#407BFF"/>
<path d="M115.477 56.5209V72.0709C115.481 72.6018 115.383 73.1283 115.19 73.62C114.998 74.1118 114.713 74.5593 114.353 74.9367C113.993 75.3141 113.564 75.614 113.092 75.8193C112.619 76.0245 112.113 76.131 111.601 76.1326H97.6986C93.4986 77.6378 96.1266 83.665 96.2166 83.8827C95.4169 83.5989 94.6686 83.1784 94.0026 82.6387C91.0026 80.1507 91.4226 76.1388 91.4226 76.1388H73.2006C72.1679 76.1388 71.1774 75.7135 70.4472 74.9565C69.7169 74.1994 69.3066 73.1727 69.3066 72.102V56.552C69.3066 55.4814 69.7169 54.4546 70.4472 53.6976C71.1774 52.9406 72.1679 52.5153 73.2006 52.5153H111.601C112.626 52.5185 113.608 52.9412 114.334 53.6914C115.06 54.4415 115.47 55.4584 115.477 56.5209Z" fill="#407BFF"/>
<path opacity="0.2" d="M113.706 56.5212V72.0712C113.71 72.6046 113.612 73.1336 113.417 73.6275C113.223 74.1213 112.935 74.5701 112.572 74.948C112.209 75.3258 111.777 75.6251 111.301 75.8285C110.825 76.0318 110.315 76.1353 109.8 76.1328H95.9284C92.8564 77.2275 93.4324 80.7356 94.0024 82.6327C91.0024 80.1447 91.4224 76.1328 91.4224 76.1328H71.4544C70.9433 76.1328 70.4373 76.0284 69.9652 75.8254C69.493 75.6225 69.0642 75.325 68.7031 74.9501C68.3419 74.5752 68.0557 74.1301 67.8606 73.6404C67.6656 73.1506 67.5656 72.6259 67.5664 72.096V56.546C67.5656 56.0162 67.6656 55.4914 67.8606 55.0017C68.0557 54.512 68.3419 54.0669 68.7031 53.692C69.0642 53.3171 69.493 53.0196 69.9652 52.8167C70.4373 52.6137 70.9433 52.5093 71.4544 52.5093H109.8C110.311 52.5068 110.817 52.6086 111.29 52.8089C111.762 53.0092 112.192 53.304 112.555 53.6766C112.918 54.0491 113.206 54.4921 113.404 54.9801C113.601 55.4682 113.704 55.9919 113.706 56.5212Z" fill="white"/>
<path d="M110.113 56.2413H70.9209V58.3935H110.113V56.2413Z" fill="#407BFF"/>
<path d="M110.113 60.191H70.9209V62.3432H110.113V60.191Z" fill="#407BFF"/>
<path d="M110.113 64.1469H70.9209V66.299H110.113V64.1469Z" fill="#407BFF"/>
<path opacity="0.1" d="M110.113 56.2413H70.9209V58.3935H110.113V56.2413Z" fill="black"/>
<path opacity="0.1" d="M110.113 60.191H70.9209V62.3432H110.113V60.191Z" fill="black"/>
<path opacity="0.1" d="M110.113 64.1469H70.9209V66.299H110.113V64.1469Z" fill="black"/>
</svg>
