<svg width="31" height="27" viewBox="0 0 31 27" fill="none" xmlns="http://www.w3.org/2000/svg">
<path d="M15.3998 15.4088C14.8935 15.4088 14.3986 15.5355 13.9776 15.7729C13.5566 16.0103 13.2285 16.3477 13.0347 16.7425C12.841 17.1373 12.7903 17.5717 12.889 17.9908C12.9878 18.41 13.2316 18.7949 13.5897 19.0971C13.9477 19.3993 14.4038 19.605 14.9004 19.6884C15.397 19.7718 15.9117 19.729 16.3795 19.5655C16.8473 19.4019 17.2471 19.125 17.5284 18.7697C17.8097 18.4144 17.9598 17.9967 17.9598 17.5693C17.9598 16.9963 17.6901 16.4468 17.21 16.0416C16.7299 15.6364 16.0788 15.4088 15.3998 15.4088Z" fill="white"/>
<path d="M16.8221 10.7235C16.4011 10.9609 15.9062 11.0876 15.3998 11.0876C14.7209 11.0876 14.0697 10.86 13.5897 10.4548C13.1096 10.0496 12.8398 9.50003 12.8398 8.927C12.8398 8.49968 12.99 8.08195 13.2713 7.72665C13.5526 7.37134 13.9524 7.09441 14.4202 6.93088C14.888 6.76735 15.4027 6.72457 15.8993 6.80793C16.3959 6.8913 16.852 7.09708 17.21 7.39924C17.5681 7.7014 17.8119 8.08638 17.9107 8.50549C18.0094 8.92461 17.9587 9.35903 17.765 9.75382C17.5712 10.1486 17.2431 10.4861 16.8221 10.7235Z" fill="white"/>
</svg>
